<?xml version="1.0" encoding="UTF-8"?>
<svg xmlns="http://www.w3.org/2000/svg" xmlns:xlink="http://www.w3.org/1999/xlink" width="966.958pt" height="875.305pt" viewBox="0 0 966.958 875.305" version="1.1">
<defs>
<clipPath id="clip1">
  <path d="M 0 491 L 966.957031 491 L 966.957031 875.304688 L 0 875.304688 Z M 0 491 "/>
</clipPath>
</defs>
<g id="surface1">
<path style="fill:none;stroke-width:1;stroke-linecap:butt;stroke-linejoin:miter;stroke:rgb(6.307983%,5.787659%,5.090332%);stroke-opacity:1;stroke-miterlimit:10;" d="M 0.00146875 -0.00138125 L -67.428219 -0.00138125 C -73.912594 -0.00138125 -79.170406 5.256431 -79.170406 11.744712 L -79.170406 79.170494 C -79.170406 85.658775 -73.912594 90.912681 -67.428219 90.912681 L 0.00146875 90.912681 C 6.485844 90.912681 11.743656 85.658775 11.743656 79.170494 L 11.743656 11.744712 C 11.743656 5.256431 6.485844 -0.00138125 0.00146875 -0.00138125 Z M 0.00146875 -0.00138125 " transform="matrix(1,0,0,-1,446.0415,210.6744)"/>
<path style="fill:none;stroke-width:1;stroke-linecap:butt;stroke-linejoin:miter;stroke:rgb(6.307983%,5.787659%,5.090332%);stroke-opacity:1;stroke-miterlimit:10;" d="M 0.0004125 -0.00138125 L -67.425369 -0.00138125 C -73.91365 -0.00138125 -79.171463 5.256431 -79.171463 11.744712 L -79.171463 79.170494 C -79.171463 85.658775 -73.91365 90.912681 -67.425369 90.912681 L 0.0004125 90.912681 C 6.484787 90.912681 11.7426 85.658775 11.7426 79.170494 L 11.7426 11.744712 C 11.7426 5.256431 6.484787 -0.00138125 0.0004125 -0.00138125 Z M 0.0004125 -0.00138125 " transform="matrix(1,0,0,-1,548.6949,210.6744)"/>
<path style="fill:none;stroke-width:1;stroke-linecap:butt;stroke-linejoin:miter;stroke:rgb(6.307983%,5.787659%,5.090332%);stroke-opacity:1;stroke-miterlimit:10;" d="M -0.0001625 0.0009375 C -0.0001625 1.278281 1.027181 2.313437 2.296713 2.313437 L 8.773275 2.313437 C 10.042806 2.313437 11.07015 1.278281 11.07015 0.0009375 C 11.07015 -1.280313 10.042806 -2.315469 8.773275 -2.315469 L 2.296713 -2.315469 C 1.027181 -2.315469 -0.0001625 -1.280313 -0.0001625 0.0009375 Z M -12.441569 0.0009375 C -12.441569 1.278281 -11.410319 2.313437 -10.140787 2.313437 L -3.668131 2.313437 C -2.3986 2.313437 -1.371256 1.278281 -1.371256 0.0009375 C -1.371256 -1.280313 -2.3986 -2.315469 -3.668131 -2.315469 L -10.140787 -2.315469 C -11.410319 -2.315469 -12.441569 -1.280313 -12.441569 0.0009375 Z M -24.879069 0.0009375 C -24.879069 1.278281 -23.851725 2.313437 -22.582194 2.313437 L -16.109537 2.313437 C -14.840006 2.313437 -13.808756 1.278281 -13.808756 0.0009375 C -13.808756 -1.280313 -14.840006 -2.315469 -16.109537 -2.315469 L -22.582194 -2.315469 C -23.851725 -2.315469 -24.879069 -1.280313 -24.879069 0.0009375 Z M -37.320475 -17.506875 C -37.320475 -16.229531 -36.293131 -15.190469 -35.0236 -15.190469 L -28.547037 -15.190469 C -27.277506 -15.190469 -26.250162 -16.229531 -26.250162 -17.506875 C -26.250162 -18.784219 -27.277506 -19.819375 -28.547037 -19.819375 L -35.0236 -19.819375 C -36.293131 -19.819375 -37.320475 -18.784219 -37.320475 -17.506875 Z M -24.879069 -17.506875 C -24.879069 -16.229531 -23.851725 -15.190469 -22.582194 -15.190469 L -16.109537 -15.190469 C -14.840006 -15.190469 -13.808756 -16.229531 -13.808756 -17.506875 C -13.808756 -18.784219 -14.840006 -19.819375 -16.109537 -19.819375 L -22.582194 -19.819375 C -23.851725 -19.819375 -24.879069 -18.784219 -24.879069 -17.506875 Z M -12.437662 -17.506875 C -12.437662 -16.229531 -11.410319 -15.190469 -10.140787 -15.190469 L -3.664225 -15.190469 C -2.394694 -15.190469 -1.36735 -16.229531 -1.36735 -17.506875 C -1.36735 -18.784219 -2.394694 -19.819375 -3.664225 -19.819375 L -10.140787 -19.819375 C -11.410319 -19.819375 -12.437662 -18.784219 -12.437662 -17.506875 Z M -6.218912 -8.756875 C -6.218912 -7.475625 -5.191569 -6.440469 -3.922037 -6.440469 L 2.554525 -6.440469 C 3.82015 -6.440469 4.8514 -7.475625 4.8514 -8.756875 C 4.8514 -10.034219 3.82015 -11.069375 2.554525 -11.069375 L -3.922037 -11.069375 C -5.191569 -11.069375 -6.218912 -10.034219 -6.218912 -8.756875 Z M -18.660319 -8.756875 C -18.660319 -7.475625 -17.632975 -6.440469 -16.363444 -6.440469 L -9.890787 -6.440469 C -8.621256 -6.440469 -7.590006 -7.475625 -7.590006 -8.756875 C -7.590006 -10.034219 -8.621256 -11.069375 -9.890787 -11.069375 L -16.363444 -11.069375 C -17.632975 -11.069375 -18.660319 -10.034219 -18.660319 -8.756875 Z M -37.324381 0.0009375 C -37.324381 1.278281 -36.293131 2.313437 -35.0236 2.313437 L -28.550944 2.313437 C -27.281412 2.313437 -26.254069 1.278281 -26.254069 0.0009375 C -26.254069 -1.280313 -27.281412 -2.315469 -28.550944 -2.315469 L -35.0236 -2.315469 C -36.293131 -2.315469 -37.324381 -1.280313 -37.324381 0.0009375 Z M -37.30485 -8.756875 C -37.30485 -7.475625 -36.254069 -6.440469 -34.957194 -6.440469 L -22.500162 -6.440469 C -21.203287 -6.440469 -20.152506 -7.475625 -20.152506 -8.756875 C -20.152506 -10.034219 -21.203287 -11.069375 -22.500162 -11.069375 L -34.957194 -11.069375 C -36.254069 -11.069375 -37.30485 -10.034219 -37.30485 -8.756875 Z M -588.261881 -57.346719 C -584.636881 -63.05375 -584.890787 -69.276406 -586.7736 -75.440469 C -587.097819 -76.510781 -588.886881 -77.827188 -590.0236 -77.846719 C -608.269694 -78.206094 -626.527506 -78.713906 -644.769694 -78.483438 C -659.656412 -78.295938 -674.156412 -75.624063 -687.636881 -68.745156 C -707.672037 -58.518594 -717.890787 -41.249063 -723.422037 -20.229531 C -728.457194 -1.092813 -729.347819 18.391562 -729.703287 37.993125 C -730.207194 65.57125 -730.793131 93.145469 -731.433756 120.719687 C -731.593912 127.625937 -732.093912 134.524375 -732.453287 141.774375 C -721.715006 142.454062 -711.640787 143.168906 -701.55485 143.700156 C -694.238444 144.090781 -686.914225 144.38375 -679.590006 144.461875 C -670.86735 144.551719 -665.699381 139.3525 -665.668131 130.563437 C -665.605631 112.840781 -665.449381 95.114219 -665.695475 77.395469 C -665.906412 61.950156 -661.890787 48.07125 -652.816569 35.44625 C -635.871256 11.868125 -619.187662 -11.893594 -602.519694 -35.663125 C -597.55485 -42.74125 -592.902506 -50.049844 -588.261881 -57.346719 Z M 150.917806 130.895469 C 150.105306 96.926719 149.234213 62.957969 148.456869 28.985312 C 148.027181 10.415 146.027181 -7.858438 140.699056 -25.788125 C 131.710775 -56.045938 110.898275 -72.624063 80.523275 -76.663125 C 64.261556 -78.827188 47.589681 -78.026406 31.097494 -78.346719 C 23.909994 -78.483438 16.710775 -77.940469 9.519369 -78.002969 C 7.023275 -78.026406 5.921713 -77.202188 5.370931 -74.901406 C 3.859213 -68.600625 3.628744 -62.413125 7.464681 -56.835 C 17.796713 -41.807656 28.253744 -26.86625 38.6639 -11.893594 C 50.066244 4.512656 61.370931 20.989219 72.906088 37.301719 C 80.800619 48.469687 84.511556 60.825156 84.515463 74.403281 C 84.519369 92.793906 84.515463 111.188437 84.542806 129.579062 C 84.558431 139.715781 89.409994 144.801719 99.499838 144.454062 C 116.523275 143.875937 133.534994 142.891562 150.929525 142.063437 C 150.929525 138.028281 150.999838 134.457969 150.917806 130.895469 Z M -27.734537 38.254844 C -25.3361 38.336875 -22.941569 38.297812 -20.550944 38.297812 C -18.289225 38.305625 -16.0236 38.297812 -13.769694 38.297812 L -13.769694 38.286094 C -9.238444 38.286094 -4.718912 38.368125 -0.199381 38.266562 C 5.6014 38.122031 10.077963 33.69625 10.128744 28.231406 C 10.191244 22.813437 5.722494 18.157187 -0.0470375 18.055625 C -9.351725 17.903281 -18.668131 17.891562 -27.980631 18.047812 C -33.812662 18.137656 -38.105631 22.707969 -38.043131 28.262656 C -37.984537 33.817344 -33.6486 38.051719 -27.734537 38.254844 Z M 0.054525 231.915 C 21.421713 231.895469 38.452963 214.915 38.433431 193.649375 C 38.421713 172.395469 21.249838 155.211875 0.0740563 155.262656 C -20.92985 155.305625 -38.05485 172.418906 -38.097819 193.426719 C -38.1486 214.782187 -21.1486 231.94625 0.054525 231.915 Z M -43.597819 -49.596719 C -43.597819 -55.276406 -44.007975 -55.674844 -49.800944 -55.674844 L -290.945475 -55.674844 C -369.996256 -55.686563 -449.058756 -55.686563 -528.109537 -55.686563 C -529.972819 -55.686563 -531.8361 -55.635781 -533.703287 -55.655313 C -536.203287 -55.686563 -537.363444 -54.374063 -537.465006 -51.995156 C -537.515787 -50.92875 -537.496256 -49.86625 -537.496256 -48.799844 L -537.496256 240.348594 C -537.496256 241.149375 -537.496256 241.94625 -537.484537 242.747031 C -537.402506 247.500937 -536.92985 248.036094 -532.156412 248.036094 C -512.42985 248.063437 -492.691569 248.055625 -472.965006 248.055625 C -470.875162 248.055625 -468.980631 247.817344 -467.5861 250.266562 C -466.488444 252.215781 -464.574381 251.6025 -462.832194 250.176719 C -461.590006 249.161094 -459.8361 248.176719 -458.320475 248.176719 C -393.004069 248.075156 -327.683756 248.086875 -262.355631 248.086875 C -215.965006 248.086875 -169.574381 248.075156 -123.183756 248.063437 C -121.093912 248.063437 -119.093912 247.766562 -117.800944 250.278281 C -117.476725 250.915 -113.886881 250.915 -113.578287 250.297812 C -112.187662 247.563437 -109.933756 248.063437 -107.750162 248.063437 C -88.277506 248.055625 -68.820475 248.063437 -49.359537 248.055625 C -44.132975 248.055625 -43.597819 247.500937 -43.597819 242.348594 C -43.590006 145.036094 -43.597819 47.723594 -43.597819 -49.596719 Z M -580.902506 155.211875 C -601.984537 154.985312 -619.445475 172.254844 -619.547037 193.38375 C -619.640787 214.739219 -602.722819 231.832969 -581.394694 231.915 C -560.090006 232.00875 -543.090006 215.118125 -542.925944 193.692344 C -542.761881 172.805625 -559.918131 155.426719 -580.902506 155.211875 Z M -553.543131 18.036094 C -562.457194 17.934531 -571.375162 17.942344 -580.300944 18.024375 C -586.664225 18.086875 -591.324381 22.555625 -591.24235 28.262656 C -591.160319 33.860312 -586.601725 38.153281 -580.453287 38.274375 C -575.925944 38.368125 -571.402506 38.297812 -566.875162 38.297812 L -566.875162 38.317344 C -562.480631 38.317344 -558.093912 38.387656 -553.695475 38.297812 C -547.539225 38.172812 -543.070475 33.887656 -543.050944 28.223594 C -543.027506 22.454062 -547.375162 18.118125 -553.543131 18.036094 Z M -583.24235 -2.315469 L -589.715006 -2.315469 C -590.984537 -2.315469 -592.011881 -1.280313 -592.011881 0.0009375 C -592.011881 1.278281 -590.984537 2.313437 -589.715006 2.313437 L -583.24235 2.313437 C -581.972819 2.313437 -580.941569 1.278281 -580.941569 0.0009375 C -580.941569 -1.280313 -581.972819 -2.315469 -583.24235 -2.315469 Z M -570.800944 -2.315469 L -577.2736 -2.315469 C -578.543131 -2.315469 -579.574381 -1.280313 -579.574381 0.0009375 C -579.574381 1.278281 -578.543131 2.313437 -577.2736 2.313437 L -570.800944 2.313437 C -569.531412 2.313437 -568.504069 1.278281 -568.504069 0.0009375 C -568.504069 -1.280313 -569.531412 -2.315469 -570.800944 -2.315469 Z M -558.359537 -2.315469 L -564.8361 -2.315469 C -566.105631 -2.315469 -567.132975 -1.280313 -567.132975 0.0009375 C -567.132975 1.278281 -566.105631 2.313437 -564.8361 2.313437 L -558.359537 2.313437 C -557.090006 2.313437 -556.062662 1.278281 -556.062662 0.0009375 C -556.062662 -1.280313 -557.090006 -2.315469 -558.359537 -2.315469 Z M -545.918131 -19.819375 L -552.394694 -19.819375 C -553.664225 -19.819375 -554.691569 -18.784219 -554.691569 -17.506875 C -554.691569 -16.229531 -553.664225 -15.190469 -552.394694 -15.190469 L -545.918131 -15.190469 C -544.652506 -15.190469 -543.621256 -16.229531 -543.621256 -17.506875 C -543.621256 -18.784219 -544.652506 -19.819375 -545.918131 -19.819375 Z M -558.359537 -19.819375 L -564.8361 -19.819375 C -566.105631 -19.819375 -567.132975 -18.784219 -567.132975 -17.506875 C -567.132975 -16.229531 -566.105631 -15.190469 -564.8361 -15.190469 L -558.359537 -15.190469 C -557.090006 -15.190469 -556.062662 -16.229531 -556.062662 -17.506875 C -556.062662 -18.784219 -557.090006 -19.819375 -558.359537 -19.819375 Z M -570.80485 -19.819375 L -577.277506 -19.819375 C -578.547037 -19.819375 -579.574381 -18.784219 -579.574381 -17.506875 C -579.574381 -16.229531 -578.547037 -15.190469 -577.277506 -15.190469 L -570.80485 -15.190469 C -569.535319 -15.190469 -568.504069 -16.229531 -568.504069 -17.506875 C -568.504069 -18.784219 -569.535319 -19.819375 -570.80485 -19.819375 Z M -577.0236 -11.069375 L -583.496256 -11.069375 C -584.765787 -11.069375 -585.793131 -10.034219 -585.793131 -8.756875 C -585.793131 -7.475625 -584.765787 -6.440469 -583.496256 -6.440469 L -577.0236 -6.440469 C -575.754069 -6.440469 -574.722819 -7.475625 -574.722819 -8.756875 C -574.722819 -10.034219 -575.754069 -11.069375 -577.0236 -11.069375 Z M -564.578287 -11.069375 L -571.05485 -11.069375 C -572.324381 -11.069375 -573.351725 -10.034219 -573.351725 -8.756875 C -573.351725 -7.475625 -572.324381 -6.440469 -571.05485 -6.440469 L -564.578287 -6.440469 C -563.308756 -6.440469 -562.281412 -7.475625 -562.281412 -8.756875 C -562.281412 -10.034219 -563.308756 -11.069375 -564.578287 -11.069375 Z M -545.918131 -2.315469 L -552.390787 -2.315469 C -553.660319 -2.315469 -554.691569 -1.280313 -554.691569 0.0009375 C -554.691569 1.278281 -553.660319 2.313437 -552.390787 2.313437 L -545.918131 2.313437 C -544.6486 2.313437 -543.621256 1.278281 -543.621256 0.0009375 C -543.621256 -1.280313 -544.6486 -2.315469 -545.918131 -2.315469 Z M -545.984537 -11.069375 L -558.445475 -11.069375 C -559.738444 -11.069375 -560.789225 -10.034219 -560.789225 -8.756875 C -560.789225 -7.475625 -559.738444 -6.440469 -558.445475 -6.440469 L -545.984537 -6.440469 C -544.687662 -6.440469 -543.640787 -7.475625 -543.640787 -8.756875 C -543.640787 -10.034219 -544.687662 -11.069375 -545.984537 -11.069375 Z M -623.297037 53.391562 C -631.855631 53.422812 -637.050944 58.516562 -637.070475 67.00875 C -637.121256 89.125937 -637.132975 111.239219 -637.070475 133.3525 C -637.050944 142.25875 -632.132975 147.176719 -623.195475 147.207969 C -601.215006 147.278281 -579.234537 147.301719 -557.250162 147.239219 C -548.191569 147.219687 -543.265787 142.19625 -543.24235 133.055625 C -543.203287 110.942344 -543.203287 88.825156 -543.265787 66.711875 C -543.285319 58.75875 -548.613444 53.442344 -556.55485 53.399375 C -567.746256 53.340781 -578.937662 53.391562 -590.125162 53.391562 C -601.183756 53.391562 -612.24235 53.360312 -623.297037 53.391562 Z M -650.281412 182.012656 C -650.156412 179.059531 -651.238444 177.051719 -654.097819 176.915 C -659.941569 176.653281 -665.797037 176.614219 -671.629069 176.840781 C -674.582194 176.965781 -675.972819 178.954062 -675.847819 182.125937 C -675.675944 186.567344 -675.797037 191.00875 -675.797037 195.973594 C -680.707194 195.973594 -685.324381 196.106406 -689.933756 195.922812 C -693.289225 195.786094 -695.215006 197.407187 -695.379069 200.4775 C -695.668131 205.969687 -695.675944 211.493125 -695.410319 216.985312 C -695.246256 220.231406 -693.277506 221.926719 -689.718912 221.7275 C -685.324381 221.489219 -680.910319 221.668906 -675.777506 221.668906 C -675.777506 226.723594 -675.601725 231.301719 -675.840006 235.856406 C -676.035319 239.497031 -674.183756 241.442344 -671.097819 241.649375 C -665.797037 242.012656 -660.445475 242.024375 -655.1486 241.692344 C -651.855631 241.485312 -650.000162 239.454062 -650.250162 235.649375 C -650.535319 231.215781 -650.320475 226.762656 -650.320475 221.676719 C -645.402506 221.676719 -640.7736 221.500937 -636.164225 221.739219 C -632.769694 221.918906 -630.812662 220.219687 -630.629069 217.254844 C -630.277506 211.637656 -630.265787 205.957969 -630.636881 200.340781 C -630.832194 197.387656 -632.851725 195.711875 -636.226725 195.887656 C -640.730631 196.118125 -645.257975 195.942344 -650.332194 195.942344 C -650.332194 191.094687 -650.465006 186.547812 -650.281412 182.012656 Z M -623.843912 249.336875 C -618.789225 249.500937 -613.718912 249.50875 -608.664225 249.344687 C -605.11735 249.231406 -602.578287 246.38375 -602.67985 243.125937 C -602.781412 239.969687 -605.2111 237.457969 -608.601725 237.243125 C -611.125162 237.098594 -613.656412 237.223594 -616.187662 237.223594 C -618.718912 237.223594 -621.257975 237.098594 -623.781412 237.243125 C -627.3986 237.457969 -629.793131 240.07125 -629.722819 243.454062 C -629.652506 246.598594 -627.234537 249.223594 -623.843912 249.336875 Z M 27.859213 249.356406 C 32.644369 249.489219 37.437338 249.4775 42.2264 249.368125 C 46.066244 249.274375 48.648275 246.641562 48.597494 243.176719 C 48.5389 239.704062 45.964681 237.336875 42.019369 237.211875 C 39.753744 237.141562 37.488119 237.192344 35.234213 237.192344 L 35.234213 237.211875 C 32.706869 237.211875 30.175619 237.098594 27.652181 237.243125 C 24.054525 237.457969 21.523275 240.114219 21.585775 243.38375 C 21.656088 246.590781 24.312338 249.262656 27.859213 249.356406 Z M 71.234213 208.325156 C 71.277181 200.582969 65.042806 194.29 57.38265 194.344687 C 49.792806 194.407187 43.683431 200.403281 43.558431 207.950156 C 43.433431 215.653281 49.562338 222.047812 57.214681 222.192344 C 64.781088 222.329062 71.183431 216.00875 71.234213 208.325156 Z M 82.179525 246.930625 C 89.777181 246.981406 96.046713 240.657187 96.034994 232.950156 C 96.023275 225.270469 89.718588 219.051719 82.023275 219.13375 C 74.402181 219.207969 68.253744 225.582969 68.355306 233.301719 C 68.460775 240.743125 74.683431 246.875937 82.179525 246.930625 Z M 107.386556 222.122031 C 115.218588 222.2275 121.863119 215.860312 121.863119 208.231406 C 121.863119 200.481406 115.511556 194.44625 107.378744 194.44625 C 99.378744 194.454062 93.050619 200.668906 93.120931 208.438437 C 93.183431 215.879844 99.577963 222.00875 107.386556 222.122031 Z M 82.148275 169.661094 C 74.6014 169.672812 68.409994 175.747031 68.335775 183.204062 C 68.265463 190.899375 74.425619 197.247031 82.054525 197.340781 C 89.675619 197.422812 96.042806 191.129844 96.054525 183.493125 C 96.066244 175.778281 89.906088 169.641562 82.148275 169.661094 Z M 55.999838 100.110312 L 55.9764 100.110312 C 55.9764 89.184531 55.999838 78.262656 55.968588 67.348594 C 55.937338 58.524375 50.88265 53.411094 42.120931 53.391562 C 20.152181 53.368125 -1.828287 53.368125 -23.800944 53.399375 C -32.797037 53.422812 -37.828287 58.516562 -37.840006 67.6025 C -37.871256 89.317344 -37.879069 111.024375 -37.840006 132.7275 C -37.828287 142.32125 -32.9611 147.207969 -23.340006 147.2275 C -1.500162 147.278281 20.347494 147.278281 42.183431 147.219687 C 50.995931 147.19625 55.94515 142.157187 55.988119 133.270469 C 56.0389 122.215781 55.999838 111.157187 55.999838 100.110312 Z M 11.777181 -44.885781 C 30.890463 -17.768594 49.7264 9.54 69.062338 36.493125 C 77.804525 48.676719 82.120931 61.731406 81.718588 76.786094 C 81.2264 94.625937 81.546713 112.50875 81.628744 130.372031 C 81.679525 141.211875 87.714681 147.145469 98.534994 147.176719 C 113.734213 147.2275 128.929525 147.19625 144.128744 147.207969 L 150.144369 147.207969 C 150.144369 169.590781 150.1639 191.305625 150.081869 213.028281 C 150.07015 214.043906 149.331869 215.262656 148.585775 216.051719 C 139.148275 225.817344 129.585775 235.481406 120.156088 245.266562 C 111.941244 253.813437 101.980306 259.051719 90.449056 261.418906 C 72.710775 265.067344 54.675619 265.067344 36.722494 265.036094 C 3.6639 264.993125 -29.394694 264.094687 -62.445475 264.094687 C -225.74235 264.122031 -389.027506 264.379844 -552.324381 264.442344 C -586.293131 264.461875 -620.2736 264.379844 -654.234537 263.672812 C -673.777506 263.274375 -691.300944 257.317344 -704.726725 241.793906 C -712.300944 233.043906 -720.8986 225.192344 -728.847819 216.770469 C -730.129069 215.407187 -731.113444 213.161094 -731.125162 211.317344 C -731.289225 191.325156 -731.238444 171.32125 -731.226725 151.329062 C -731.215006 150.055625 -731.082194 148.774375 -730.980631 147.207969 L -726.277506 147.207969 C -711.078287 147.207969 -695.882975 147.219687 -680.683756 147.207969 C -668.410319 147.207969 -662.691569 141.438437 -662.67985 129.047812 C -662.668131 110.387656 -662.578287 91.7275 -662.67985 73.067344 C -662.750162 61.536094 -659.996256 50.981406 -653.30485 41.450156 C -633.390787 13.106406 -613.644694 -15.338906 -593.734537 -43.674844 C -586.816569 -53.514688 -579.24235 -62.99125 -581.1486 -75.792031 L 0.0974938 -75.792031 C -1.738444 -63.565469 5.128744 -54.30375 11.777181 -44.885781 Z M 11.777181 -44.885781 " transform="matrix(1,0,0,-1,763.8986,265.54)"/>
<path style="fill:none;stroke-width:1;stroke-linecap:butt;stroke-linejoin:miter;stroke:rgb(6.307983%,5.787659%,5.090332%);stroke-opacity:1;stroke-miterlimit:10;" d="M 0.00071875 -0.0000125 C -5.741469 0.0781125 -10.471937 4.890612 -10.471937 10.648425 C -10.471937 16.699206 -5.639906 21.5703 0.289781 21.499987 C 6.02025 21.441394 10.688219 16.660144 10.711656 10.85155 C 10.731188 4.749987 5.969469 -0.0781375 0.00071875 -0.0000125 Z M -33.647719 7.253894 C -35.358656 7.253894 -36.745375 8.648425 -36.745375 10.367175 C -36.745375 12.089831 -35.358656 13.484362 -33.647719 13.484362 C -31.940687 13.484362 -30.553969 12.089831 -30.553969 10.367175 C -30.553969 8.648425 -31.940687 7.253894 -33.647719 7.253894 Z M -62.991469 4.078112 C -68.909437 3.609362 -74.909437 3.628894 -80.850844 3.988269 C -84.530531 4.210925 -86.811781 6.749987 -86.921156 10.589831 C -87.030531 14.03905 -84.018812 16.718737 -80.128187 16.949206 C -79.819594 16.968737 -79.499281 16.960925 -79.190687 16.960925 C -76.839125 16.968737 -74.47975 16.968737 -72.128187 16.968737 C -69.300062 16.960925 -66.471937 17.10155 -63.659437 16.929675 C -60.038344 16.710925 -57.800062 14.660144 -57.499281 11.03905 C -57.190687 7.160144 -59.268812 4.371081 -62.991469 4.078112 Z M -140.831312 2.898425 C -140.850844 0.781237 -142.530531 -0.781263 -145.038344 -1.21095 C -147.518812 -1.640638 -150.100844 -1.000013 -151.268812 0.531237 C -151.811781 1.249987 -152.038344 2.140612 -152.069594 2.960925 C -152.171156 5.449206 -152.108656 7.941394 -152.108656 10.429675 L -152.139906 10.429675 C -152.139906 12.871081 -152.159437 15.308581 -152.139906 17.738269 C -152.108656 20.519519 -149.940687 22.28905 -146.569594 22.3203 C -143.210219 22.359362 -140.850844 20.558581 -140.831312 17.839831 C -140.788344 12.859362 -140.780531 7.878894 -140.831312 2.898425 Z M -154.999281 2.898425 C -155.018812 0.781237 -156.6985 -0.781263 -159.210219 -1.21095 C -161.690687 -1.640638 -164.268812 -1.000013 -165.440687 0.531237 C -165.97975 1.249987 -166.210219 2.140612 -166.241469 2.960925 C -166.339125 5.449206 -166.280531 7.941394 -166.280531 10.429675 L -166.311781 10.429675 C -166.311781 12.871081 -166.331312 15.308581 -166.311781 17.738269 C -166.280531 20.519519 -164.108656 22.28905 -160.741469 22.3203 C -157.378187 22.359362 -155.018812 20.558581 -154.999281 17.839831 C -154.960219 12.859362 -154.9485 7.878894 -154.999281 2.898425 Z M -169.171156 2.898425 C -169.190687 0.781237 -170.870375 -0.781263 -173.378187 -1.21095 C -175.858656 -1.640638 -178.440687 -1.000013 -179.608656 0.531237 C -180.151625 1.249987 -180.378187 2.140612 -180.409437 2.960925 C -180.511 5.449206 -180.4485 7.941394 -180.4485 10.429675 L -180.47975 10.429675 C -180.47975 12.871081 -180.499281 15.308581 -180.47975 17.738269 C -180.4485 20.519519 -178.280531 22.28905 -174.909437 22.3203 C -171.550062 22.359362 -169.190687 20.558581 -169.171156 17.839831 C -169.128187 12.859362 -169.120375 7.878894 -169.171156 2.898425 Z M -183.339125 2.898425 C -183.358656 0.781237 -185.038344 -0.781263 -187.550062 -1.21095 C -190.030531 -1.640638 -192.608656 -1.000013 -193.780531 0.531237 C -194.319594 1.249987 -194.550062 2.140612 -194.581312 2.960925 C -194.678969 5.449206 -194.620375 7.941394 -194.620375 10.429675 L -194.651625 10.429675 C -194.651625 12.871081 -194.671156 15.308581 -194.651625 17.738269 C -194.620375 20.519519 -192.4485 22.28905 -189.081312 22.3203 C -185.721937 22.359362 -183.358656 20.558581 -183.339125 17.839831 C -183.300062 12.859362 -183.288344 7.878894 -183.339125 2.898425 Z M -197.511 2.898425 C -197.530531 0.781237 -199.210219 -0.781263 -201.721937 -1.21095 C -204.1985 -1.640638 -206.780531 -1.000013 -207.9485 0.531237 C -208.491469 1.249987 -208.721937 2.140612 -208.749281 2.960925 C -208.850844 5.449206 -208.788344 7.941394 -208.788344 10.429675 L -208.819594 10.429675 C -208.819594 12.871081 -208.839125 15.308581 -208.819594 17.738269 C -208.788344 20.519519 -206.620375 22.28905 -203.249281 22.3203 C -199.889906 22.359362 -197.530531 20.558581 -197.511 17.839831 C -197.471937 12.859362 -197.460219 7.878894 -197.511 2.898425 Z M -211.678969 2.898425 C -211.6985 0.781237 -213.378187 -0.781263 -215.889906 -1.21095 C -218.370375 -1.640638 -220.9485 -1.000013 -222.120375 0.531237 C -222.659437 1.249987 -222.889906 2.140612 -222.921156 2.960925 C -223.018812 5.449206 -222.960219 7.941394 -222.960219 10.429675 L -222.991469 10.429675 C -222.991469 12.871081 -223.011 15.308581 -222.991469 17.738269 C -222.960219 20.519519 -220.788344 22.28905 -217.421156 22.3203 C -214.061781 22.359362 -211.6985 20.558581 -211.678969 17.839831 C -211.639906 12.859362 -211.628187 7.878894 -211.678969 2.898425 Z M -225.850844 2.898425 C -225.870375 0.781237 -227.550062 -0.781263 -230.061781 -1.21095 C -232.538344 -1.640638 -235.120375 -1.000013 -236.288344 0.531237 C -236.831312 1.249987 -237.061781 2.140612 -237.089125 2.960925 C -237.190687 5.449206 -237.128187 7.941394 -237.128187 10.429675 L -237.159437 10.429675 C -237.159437 12.871081 -237.178969 15.308581 -237.159437 17.738269 C -237.128187 20.519519 -234.960219 22.28905 -231.589125 22.3203 C -228.22975 22.359362 -225.870375 20.558581 -225.850844 17.839831 C -225.811781 12.859362 -225.800062 7.878894 -225.850844 2.898425 Z M -240.018812 2.898425 C -240.038344 0.781237 -241.721937 -0.781263 -244.22975 -1.21095 C -246.710219 -1.640638 -249.288344 -1.000013 -250.460219 0.531237 C -250.999281 1.249987 -251.22975 2.140612 -251.261 2.960925 C -251.358656 5.449206 -251.300062 7.941394 -251.300062 10.429675 L -251.331312 10.429675 C -251.331312 12.871081 -251.350844 15.308581 -251.331312 17.738269 C -251.300062 20.519519 -249.128187 22.28905 -245.761 22.3203 C -242.401625 22.359362 -240.038344 20.558581 -240.018812 17.839831 C -239.97975 12.859362 -239.971937 7.878894 -240.018812 2.898425 Z M -254.190687 2.898425 C -254.210219 0.781237 -255.889906 -0.781263 -258.401625 -1.21095 C -260.878187 -1.640638 -263.460219 -1.000013 -264.628187 0.531237 C -265.171156 1.249987 -265.401625 2.140612 -265.428969 2.960925 C -265.530531 5.449206 -265.471937 7.941394 -265.471937 10.429675 L -265.499281 10.429675 C -265.499281 12.871081 -265.518812 15.308581 -265.499281 17.738269 C -265.471937 20.519519 -263.300062 22.28905 -259.928969 22.3203 C -256.569594 22.359362 -254.210219 20.558581 -254.190687 17.839831 C -254.151625 12.859362 -254.139906 7.878894 -254.190687 2.898425 Z M -268.358656 2.898425 C -268.378187 0.781237 -270.061781 -0.781263 -272.569594 -1.21095 C -275.050062 -1.640638 -277.628187 -1.000013 -278.800062 0.531237 C -279.339125 1.249987 -279.569594 2.140612 -279.600844 2.960925 C -279.6985 5.449206 -279.639906 7.941394 -279.639906 10.429675 L -279.671156 10.429675 C -279.671156 12.871081 -279.690687 15.308581 -279.671156 17.738269 C -279.639906 20.519519 -277.471937 22.28905 -274.100844 22.3203 C -270.741469 22.359362 -268.378187 20.558581 -268.358656 17.839831 C -268.319594 12.859362 -268.311781 7.878894 -268.358656 2.898425 Z M -282.530531 2.898425 C -282.550062 0.781237 -284.22975 -0.781263 -286.741469 -1.21095 C -289.221937 -1.640638 -291.800062 -1.000013 -292.971937 0.531237 C -293.511 1.249987 -293.741469 2.140612 -293.768812 2.960925 C -293.870375 5.449206 -293.811781 7.941394 -293.811781 10.429675 L -293.839125 10.429675 C -293.839125 12.871081 -293.858656 15.308581 -293.839125 17.738269 C -293.811781 20.519519 -291.639906 22.28905 -288.268812 22.3203 C -284.909437 22.359362 -282.550062 20.558581 -282.530531 17.839831 C -282.491469 12.859362 -282.47975 7.878894 -282.530531 2.898425 Z M -361.960219 0.0585812 C -367.690687 0.0195187 -372.511 4.808581 -372.538344 10.578112 C -372.569594 16.371081 -367.858656 21.140612 -362.069594 21.179675 C -356.389906 21.218737 -351.47975 16.378894 -351.409437 10.679675 C -351.350844 5.078112 -356.288344 0.0898312 -361.960219 0.0585812 Z M -419.491469 0.0585812 C -425.1985 0.140612 -429.940687 4.999987 -429.901625 10.749987 C -429.850844 16.511706 -425.011 21.230456 -419.249281 21.148425 C -413.378187 21.050769 -408.850844 16.398425 -408.889906 10.511706 C -408.928969 4.718737 -413.72975 -0.0117313 -419.491469 0.0585812 Z M -450.811781 0.0703 C -456.511 0.308581 -461.221937 5.35155 -460.999281 11.011706 C -460.780531 16.718737 -455.788344 21.35155 -450.050062 21.148425 C -444.22975 20.949206 -439.72975 16.089831 -439.960219 10.261706 C -440.190687 4.441394 -445.100844 -0.171888 -450.811781 0.0703 Z M 225.219469 16.390612 C 221.410875 15.960925 216.828844 16.718737 213.918688 14.871081 C 204.090563 8.628894 193.449938 5.718737 182.110094 5.589831 C 150.699938 5.249987 119.289781 5.269519 87.891344 5.171862 C 86.629625 5.160144 85.360094 5.261706 84.110094 5.429675 C 77.910875 6.261706 74.168688 10.199206 73.789781 16.421862 C 73.641344 18.859362 73.77025 21.308581 73.77025 23.781237 L -507.960219 23.781237 C -508.050062 22.019519 -508.151625 20.628894 -508.171156 19.238269 C -508.350844 9.429675 -512.1985 5.171862 -521.921156 5.179675 C -554.108656 5.191394 -586.319594 4.980456 -618.491469 5.878894 C -627.030531 6.121081 -635.928969 8.980456 -643.768812 12.578112 C -649.210219 15.078112 -654.050062 16.671862 -660.639906 15.53905 C -650.749281 5.480456 -639.550062 -1.199231 -626.22975 -2.828138 C -613.428969 -4.39845 -600.4485 -5.019544 -587.538344 -5.031263 C -353.171156 -5.121106 -118.788344 -5.070325 115.590563 -5.019544 C 135.469469 -5.019544 155.360094 -5.050794 175.239 -4.691419 C 189.278063 -4.449231 202.899156 -1.96095 214.809313 6.171862 C 218.699938 8.828112 222.250719 11.988269 225.949938 14.929675 C 225.711656 15.421862 225.461656 15.898425 225.219469 16.390612 Z M 225.219469 16.390612 " transform="matrix(1,0,0,-1,700.8235,492.3203)"/>
<g clip-path="url(#clip1)" clip-rule="nonzero">
<path style="fill:none;stroke-width:1;stroke-linecap:butt;stroke-linejoin:miter;stroke:rgb(6.307983%,5.787659%,5.090332%);stroke-opacity:1;stroke-miterlimit:10;" d="M 532.09375 226.359687 L 433.8125 226.359687 L 433.8125 196.9925 L 532.09375 196.9925 Z M 846.675781 115.566719 C 846.480469 104.445625 841.785156 99.46125 830.496094 98.941719 L 802.589844 97.750312 C 793.757812 97.750312 784.925781 97.722969 776.097656 97.754219 C 767.609375 97.789375 762.59375 102.715156 762.550781 111.285469 C 762.492188 123.902656 762.644531 136.52375 762.621094 149.140937 C 762.613281 153.805 764.339844 157.531562 768.40625 159.789375 C 771.976562 161.77375 771.25 163.262031 768.394531 165.08625 C 764.300781 167.703437 762.769531 171.512031 762.828125 176.351875 C 762.976562 188.02375 762.789062 199.699531 762.859375 211.371406 C 762.921875 222.027656 767.222656 226.3675 777.722656 226.437812 C 792.863281 226.543281 808.007812 226.633125 823.148438 226.605781 C 835.636719 226.582344 841.46875 221.472969 842.910156 209.164375 C 844.101562 199.000312 845.007812 188.801094 846 178.613594 C 846.597656 172.465156 845.058594 167.355781 838.992188 164.441719 C 838.253906 164.08625 837.15625 162.93 837.296875 162.58625 C 837.640625 161.746406 838.496094 160.847969 839.355469 160.531562 C 844.710938 158.570625 846.800781 154.621406 846.773438 149.164375 C 846.71875 137.965156 846.871094 126.762031 846.675781 115.566719 Z M 790.710938 51.105781 C 786.226562 51.066719 782.546875 54.172187 782.632812 57.926094 C 782.710938 61.480781 786.296875 64.535469 790.449219 64.594062 C 794.863281 64.656562 798.539062 61.500312 798.460938 57.715156 C 798.386719 54.008125 795.027344 51.144844 790.710938 51.105781 Z M 752.859375 343.172187 C 752.871094 346.855781 755.933594 349.77375 759.535156 349.527656 C 762.984375 349.297187 765.542969 346.406562 765.4375 342.863594 C 765.335938 339.43 762.410156 336.629219 759.003906 336.707344 C 755.632812 336.781562 752.84375 339.719062 752.859375 343.172187 Z M 564.195312 39.980781 C 560.476562 39.871406 557.203125 42.996406 557.089844 46.769844 C 556.980469 50.469062 560.152344 53.980781 563.71875 54.101875 C 567.378906 54.226875 570.621094 51.066719 570.765625 47.238594 C 570.90625 43.406562 567.90625 40.08625 564.195312 39.980781 Z M 554.0625 309.433906 C 554.179688 312.871406 557.140625 315.652656 560.558594 315.535469 C 563.96875 315.418281 566.660156 312.476875 566.566406 308.96125 C 566.476562 305.441719 563.65625 302.828437 560.085938 302.953437 C 556.527344 303.074531 553.941406 305.859687 554.0625 309.433906 Z M 406.648438 302.926094 C 403.113281 303.008125 400.4375 305.820625 400.535156 309.351875 C 400.632812 312.824531 403.527344 315.609687 406.960938 315.531562 C 410.414062 315.453437 413.136719 312.562812 413.070312 309.039375 C 413.003906 305.512031 410.199219 302.844062 406.648438 302.926094 Z M 403.394531 39.984687 C 399.59375 39.894844 396.476562 42.922187 396.371094 46.793281 C 396.269531 50.629219 399.300781 53.996406 402.957031 54.105781 C 406.566406 54.215156 409.90625 50.953437 410.011719 47.219062 C 410.121094 43.410469 407.0625 40.066719 403.394531 39.984687 Z M 385.972656 89.7425 C 379.730469 89.906562 375.054688 94.824531 374.964844 101.566719 C 374.859375 109.297187 374.941406 117.027656 374.941406 124.758125 C 374.9375 132.4925 374.867188 140.222969 374.960938 147.953437 C 375.039062 154.984687 379.761719 160.08625 386.085938 160.199531 C 392.363281 160.312812 397.5625 155.2425 397.636719 148.308906 C 397.804688 132.691719 397.816406 117.066719 397.652344 101.449531 C 397.582031 94.508125 392.367188 89.574531 385.972656 89.7425 Z M 370.574219 102.047187 C 370.488281 94.824531 366.003906 89.894844 359.59375 89.758125 C 353.007812 89.621406 347.964844 94.668281 347.898438 101.96125 C 347.765625 117.262031 347.761719 132.562812 347.871094 147.863594 C 347.921875 155.082344 352.984375 160.250312 359.5 160.21125 C 365.75 160.172187 370.496094 155.008125 370.574219 147.949531 C 370.660156 140.219062 370.59375 132.488594 370.59375 124.762031 C 370.59375 117.187812 370.660156 109.6175 370.574219 102.047187 Z M 343.773438 101.863594 C 343.722656 94.812812 338.875 89.816719 332.488281 89.77375 C 325.871094 89.730781 321.121094 94.777656 321.042969 102.125312 C 320.964844 109.695625 321.027344 117.269844 321.027344 124.840156 C 321.027344 132.410469 320.972656 139.984687 321.046875 147.555 C 321.117188 154.93 325.839844 160.187812 332.273438 160.215156 C 338.773438 160.2425 343.714844 155.070625 343.765625 147.765937 C 343.875 132.465156 343.882812 117.164375 343.773438 101.863594 Z M 316.816406 102.789375 C 316.722656 94.918281 312.25 89.83625 305.515625 89.738594 C 298.929688 89.644844 294.082031 94.922187 294.027344 102.640937 C 293.925781 117.465156 293.933594 132.293281 294.023438 147.1175 C 294.070312 154.89875 298.753906 160.156562 305.355469 160.215156 C 311.960938 160.27375 316.664062 155.062812 316.789062 147.265937 C 316.910156 139.851875 316.816406 132.437812 316.816406 125.027656 L 316.835938 125.027656 C 316.835938 117.613594 316.902344 110.199531 316.816406 102.789375 Z M 288.746094 9.68 C 278.996094 9.691719 269.246094 9.687812 259.496094 9.691719 C 255.949219 9.695625 253.039062 10.918281 252.9375 14.859687 C 252.828125 19.140937 255.890625 20.33625 259.621094 20.33625 C 264.339844 20.340156 269.054688 20.33625 273.773438 20.33625 C 278.808594 20.340156 283.839844 20.328437 288.871094 20.344062 C 292.445312 20.359687 295.347656 19.094062 295.425781 15.191719 C 295.511719 11.004219 292.519531 9.676094 288.746094 9.68 Z M 241.96875 95.340156 C 240.867188 97.476875 240.40625 100.133125 240.339844 102.570625 C 240.136719 109.976875 240.265625 117.394844 240.265625 124.805 L 240.203125 124.805 C 240.203125 132.058906 240.171875 139.312812 240.214844 146.566719 C 240.257812 154.816719 244.632812 160.090156 251.429688 160.199531 C 258.195312 160.308906 262.957031 154.941719 263 146.855781 C 263.078125 132.031562 263.09375 117.207344 262.996094 102.383125 C 262.953125 96.074531 259.566406 91.437812 254.515625 90.144844 C 249.519531 88.863594 244.3125 90.777656 241.96875 95.340156 Z M 267.144531 147.500312 C 267.199219 154.816719 271.925781 160.113594 278.355469 160.215156 C 284.984375 160.320625 289.84375 154.969062 289.867188 147.340156 C 289.914062 132.355781 289.925781 117.3675 289.863281 102.383125 C 289.835938 94.820625 284.851562 89.512031 278.1875 89.687812 C 271.753906 89.855781 267.1875 95.129219 267.144531 102.543281 C 267.101562 109.957344 267.132812 117.371406 267.132812 124.785469 C 267.128906 132.359687 267.085938 139.93 267.144531 147.500312 Z M 208.15625 336.687812 C 204.597656 336.594062 201.5625 339.683906 201.648438 343.305 C 201.734375 346.722969 204.652344 349.590156 208.023438 349.562812 C 211.425781 349.539375 214.25 346.664375 214.28125 343.199531 C 214.308594 339.722969 211.535156 336.769844 208.15625 336.687812 Z M 190.039062 97.738594 C 185.78125 97.781562 181.523438 97.8675 177.265625 97.894844 C 173.007812 97.922187 168.75 97.902656 164.492188 97.902656 L 139.886719 98.789375 C 136.917969 98.840156 133.878906 99.160469 131.011719 99.894844 C 124.929688 101.453437 120.828125 105.281562 120.679688 111.805 C 120.378906 125.047187 120.332031 138.301094 120.503906 151.547187 C 120.558594 155.824531 123.289062 158.754219 127.324219 160.379219 C 128.261719 160.758125 129.042969 161.52375 129.894531 162.109687 C 129.148438 162.980781 128.566406 164.152656 127.621094 164.668281 C 122.777344 167.320625 120.585938 171.410469 121.066406 176.781562 C 122.128906 188.543281 123.027344 200.340156 124.644531 212.031562 C 125.90625 221.140937 131.953125 226.347969 141.179688 226.480781 C 158.214844 226.719062 175.253906 226.590156 192.289062 226.3675 C 199.269531 226.277656 204.015625 221.566719 204.183594 214.203437 C 204.492188 200.797187 204.617188 187.3675 203.980469 173.988594 C 203.828125 170.832344 200.6875 167.519844 198.273438 164.871406 C 196.367188 162.785469 195.265625 161.769844 198.398438 160.051094 C 202.851562 157.613594 204.550781 153.637031 204.523438 148.625312 C 204.449219 136.476875 204.585938 124.328437 204.5625 112.183906 C 204.546875 102.340156 199.769531 97.633125 190.039062 97.738594 Z M 176.359375 51.1175 C 172.050781 51.195625 168.632812 54.140937 168.636719 57.77375 C 168.644531 61.555 172.398438 64.726875 176.738281 64.625312 C 180.890625 64.52375 184.472656 61.410469 184.527344 57.859687 C 184.582031 54.1175 180.855469 51.039375 176.359375 51.1175 Z M 964.058594 285.160469 C 952.398438 284.555 940.734375 283.984687 929.085938 283.226875 C 927.664062 283.133125 926.265625 282.101875 924.929688 281.3675 C 916.6875 276.844062 908.890625 271.090156 900.152344 267.972969 C 878.238281 260.152656 856.269531 264.226875 843.199219 286.722969 C 828.386719 312.21125 809.464844 333.855781 784.179688 349.52375 C 778.820312 352.844062 775.195312 357.726875 774.273438 363.89875 C 773.628906 368.203437 771.8125 369.08625 767.820312 369.094062 C 678.496094 369.33625 589.175781 369.926094 499.855469 369.980781 C 417 370.035469 334.148438 369.551094 251.296875 369.281562 C 233.621094 369.222969 215.945312 369.121406 198.273438 368.847969 C 196.671875 368.824531 193.84375 367.547187 193.695312 366.543281 C 192.265625 356.801094 185.984375 351.191719 178.199219 346.254219 C 164.5 337.566719 152.597656 326.637031 142.695312 313.863594 C 134.792969 303.664375 127.972656 292.625312 120.691406 281.941719 C 114.40625 272.71125 105.699219 267.176094 94.773438 265.281562 C 78.132812 262.390937 62.847656 266.926094 49.539062 276.33625 C 41.996094 281.668281 34.589844 284.035469 25.695312 284.02375 C 17.582031 284.008125 9.464844 284.765937 0.726562 285.215156 C 8.152344 264.625312 15.339844 244.691719 22.464844 224.933906 C 23.296875 224.890937 23.632812 224.781562 23.894531 224.875312 C 25.226562 225.359687 26.539062 225.89875 27.859375 226.406562 C 50.574219 235.129219 73.621094 242.594062 98.046875 244.765937 C 113.097656 246.105781 117.179688 241.621406 114.117188 226.793281 C 112.273438 217.844062 109.363281 209.066719 108.128906 200.047187 C 103.378906 165.39875 103.011719 130.527656 104.480469 95.660469 C 105.019531 82.875312 109.394531 71.308906 120.144531 63.035469 C 129.6875 55.691719 140.65625 51.414375 151.890625 47.6175 C 161.140625 44.488594 170.484375 41.590156 179.589844 38.082344 C 187.28125 35.1175 191.730469 29.097969 192.433594 20.828437 C 192.839844 16.035469 192.507812 11.176094 192.507812 5.890937 C 199.972656 4.906562 207.117188 3.340156 214.300781 3.121406 C 249.304688 2.062812 284.316406 0.746406 319.328125 0.656562 C 424.429688 0.394844 529.535156 0.465156 634.636719 0.824531 C 674.222656 0.96125 713.8125 2.125312 753.390625 3.125312 C 760.519531 3.305 767.613281 4.972969 774.570312 5.933906 C 774.648438 7.250312 774.726562 7.722969 774.695312 8.187812 C 773.390625 29.762031 777.164062 35.293281 797.773438 41.988594 C 799.273438 42.476875 800.769531 42.980781 802.242188 43.531562 C 813.882812 47.890937 825.796875 51.644844 837.085938 56.77375 C 854.324219 64.609687 862.28125 79.094062 862.804688 97.625312 C 863.222656 112.441719 863.210938 127.285469 862.96875 142.105781 C 862.523438 169.406562 861.691406 196.676094 853.738281 223.156562 C 852.578125 227.027656 852.25 231.238594 852.148438 235.308906 C 852.011719 240.726875 854.832031 243.781562 860.230469 244.605781 C 862.542969 244.96125 865.015625 245.2425 867.28125 244.820625 C 881.511719 242.18 895.855469 239.933906 909.859375 236.363594 C 921.53125 233.383125 932.785156 228.769844 944.605469 224.750312 C 951.808594 244.726875 958.996094 264.660469 966.277344 284.863594 C 965.226562 285.012031 964.636719 285.191719 964.058594 285.160469 Z M 964.058594 285.160469 " transform="matrix(1,0,0,-1,0,875.305)"/>
</g>
</g>
</svg>
