<?xml version="1.0" standalone="no"?><!DOCTYPE svg PUBLIC "-//W3C//DTD SVG 1.1//EN"   "http://www.w3.org/Graphics/SVG/1.1/DTD/svg11.dtd"><svg width="864pt" height="1728pt" viewBox="0 0 864 1728" version="1.1"    xmlns="http://www.w3.org/2000/svg" xmlns:xlink="http://www.w3.org/1999/xlink">  <defs>  </defs>   <path id="Path0" stroke-width="1" stroke="#060505" stroke-opacity="1" fill="#9B99CB" fill-opacity="1" fill-rule="evenodd" stroke-linecap="butt" stroke-linejoin="mitre" d="M620.6,561.3 C620.6,561.3 620.6,493.8 620.6,493.8 620.6,487.3 625.9,482.1 632.4,482.1 632.4,482.1 699.8,482.1 699.8,482.1 706.3,482.1 711.5,487.3 711.5,493.8 711.5,493.8 711.5,561.3 711.5,561.3 711.5,567.7 706.3,573 699.8,573 699.8,573 632.4,573 632.4,573 625.9,573 620.6,567.7 620.6,561.3 Z M620.6,368.5 C620.6,368.5 620.6,301 620.6,301 620.6,294.5 625.9,289.3 632.4,289.3 632.4,289.3 699.8,289.3 699.8,289.3 706.3,289.3 711.5,294.5 711.5,301 711.5,301 711.5,368.5 711.5,368.5 711.5,374.9 706.3,380.2 699.8,380.2 699.8,380.2 632.4,380.2 632.4,380.2 625.9,380.2 620.6,374.9 620.6,368.5 Z M572.8,744.8 C574.1,744.8 575.1,745.8 575.1,747 575.1,747 575.1,753.5 575.1,753.5 575.1,754.8 574.1,755.8 572.8,755.8 571.5,755.8 570.5,754.8 570.5,753.5 570.5,753.5 570.5,747 570.5,747 570.5,745.8 571.5,744.8 572.8,744.8 Z M572.8,732.3 C574.1,732.3 575.1,733.3 575.1,734.6 575.1,734.6 575.1,741.1 575.1,741.1 575.1,742.4 574.1,743.4 572.8,743.4 571.5,743.4 570.5,742.4 570.5,741.1 570.5,741.1 570.5,734.6 570.5,734.6 570.5,733.3 571.5,732.3 572.8,732.3 Z M572.8,719.9 C574.1,719.9 575.1,720.9 575.1,722.2 575.1,722.2 575.1,728.6 575.1,728.6 575.1,729.9 574.1,730.9 572.8,730.9 571.5,730.9 570.5,729.9 570.5,728.6 570.5,728.6 570.5,722.2 570.5,722.2 570.5,720.9 571.5,719.9 572.8,719.9 Z M555.3,707.4 C556.6,707.4 557.6,708.5 557.6,709.7 557.6,709.7 557.6,716.2 557.6,716.2 557.6,717.5 556.6,718.5 555.3,718.5 554,718.5 553,717.5 553,716.2 553,716.2 553,709.7 553,709.7 553,708.5 554,707.4 555.3,707.4 Z M555.3,719.9 C556.6,719.9 557.6,720.9 557.6,722.2 557.6,722.2 557.6,728.6 557.6,728.6 557.6,729.9 556.6,730.9 555.3,730.9 554,730.9 553,729.9 553,728.6 553,728.6 553,722.2 553,722.2 553,720.9 554,719.9 555.3,719.9 Z M555.3,732.3 C556.6,732.3 557.6,733.3 557.6,734.6 557.6,734.6 557.6,741.1 557.6,741.1 557.6,742.4 556.6,743.4 555.3,743.4 554,743.4 553,742.4 553,741.1 553,741.1 553,734.6 553,734.6 553,733.3 554,732.3 555.3,732.3 Z M564.1,738.5 C565.3,738.5 566.4,739.6 566.4,740.8 566.4,740.8 566.4,747.3 566.4,747.3 566.4,748.6 565.3,749.6 564.1,749.6 562.8,749.6 561.8,748.6 561.8,747.3 561.8,747.3 561.8,740.8 561.8,740.8 561.8,739.6 562.8,738.5 564.1,738.5 Z M564.1,726.1 C565.3,726.1 566.4,727.1 566.4,728.4 566.4,728.4 566.4,734.9 566.4,734.9 566.4,736.1 565.3,737.2 564.1,737.2 562.8,737.2 561.8,736.1 561.8,734.9 561.8,734.9 561.8,728.4 561.8,728.4 561.8,727.1 562.8,726.1 564.1,726.1 Z M572.8,707.4 C574.1,707.4 575.1,708.5 575.1,709.7 575.1,709.7 575.1,716.2 575.1,716.2 575.1,717.5 574.1,718.5 572.8,718.5 571.5,718.5 570.5,717.5 570.5,716.2 570.5,716.2 570.5,709.7 570.5,709.7 570.5,708.5 571.5,707.4 572.8,707.4 Z M564.1,707.4 C565.3,707.4 566.4,708.5 566.4,709.8 566.4,709.8 566.4,722.3 566.4,722.3 566.4,723.5 565.3,724.6 564.1,724.6 562.8,724.6 561.8,723.5 561.8,722.3 561.8,722.3 561.8,709.8 561.8,709.8 561.8,708.5 562.8,707.4 564.1,707.4 Z M515.5,156.5 C509.8,160.1 503.5,159.9 497.4,158 496.3,157.7 495,155.9 495,154.7 494.6,136.5 494.1,118.2 494.3,100 494.5,85.1 497.2,70.6 504.1,57.1 514.3,37.1 531.6,26.9 552.6,21.3 571.7,16.3 591.2,15.4 610.8,15 638.4,14.5 666,14 693.5,13.3 700.4,13.2 707.3,12.7 714.6,12.3 715.3,23 716,33.1 716.5,43.2 716.9,50.5 717.2,57.8 717.3,65.2 717.4,73.9 712.2,79.1 703.4,79.1 685.7,79.1 667.9,79.3 650.2,79.1 634.8,78.8 620.9,82.9 608.3,91.9 584.7,108.9 560.9,125.6 537.2,142.2 530.1,147.2 522.8,151.8 515.5,156.5 Z M703.7,895.7 C669.7,894.9 635.8,894 601.8,893.2 583.2,892.8 565,890.8 547,885.5 516.8,876.5 500.2,855.7 496.2,825.3 494,809 494.8,792.3 494.5,775.8 494.3,768.7 494.9,761.5 494.8,754.3 494.8,751.8 495.6,750.7 497.9,750.1 504.2,748.6 510.4,748.4 516,752.2 531,762.5 546,773 560.9,783.4 577.3,794.8 593.8,806.1 610.1,817.7 621.3,825.6 633.6,829.3 647.2,829.3 665.6,829.3 684,829.3 702.4,829.3 712.5,829.3 717.6,834.2 717.3,844.3 716.7,861.3 715.7,878.3 714.9,895.7 710.9,895.7 707.3,895.8 703.7,895.7 Z M611.1,717 C611.2,719.4 611.1,721.8 611.1,724.2 611.1,726.5 611.1,728.7 611.1,731 611.1,731 611.1,731 611.1,731 611.1,735.5 611.2,740 611.1,744.6 610.9,750.4 606.5,754.8 601.1,754.9 595.6,754.9 591,750.5 590.9,744.7 590.7,735.4 590.7,726.1 590.9,716.8 591,710.9 595.5,706.6 601.1,706.7 606.6,706.8 610.9,711.1 611.1,717 Z M804.7,744.8 C804.7,766.2 787.7,783.2 766.5,783.2 745.2,783.2 728,766 728.1,744.8 728.1,723.8 745.2,706.7 766.2,706.7 787.6,706.6 804.8,723.6 804.7,744.8 Z M523.2,701.2 C517.5,701.2 517.1,700.7 517.1,695 517.1,695 517.1,453.8 517.1,453.8 517.1,374.8 517.1,295.7 517.1,216.6 517.1,214.8 517.2,212.9 517.2,211 517.1,208.5 518.4,207.4 520.8,207.3 521.9,207.2 523,207.3 524,207.3 524,207.3 813.2,207.3 813.2,207.3 814,207.3 814.8,207.3 815.6,207.3 820.3,207.3 820.9,207.8 820.9,212.6 820.9,232.3 820.9,252.1 820.9,271.8 820.9,273.9 820.6,275.8 823.1,277.2 825,278.3 824.4,280.2 823,281.9 822,283.2 821,284.9 821,286.4 820.9,351.7 820.9,417.1 820.9,482.4 820.9,528.8 820.9,575.2 820.9,621.6 820.9,623.7 820.6,625.7 823.1,627 823.7,627.3 823.7,630.9 823.1,631.2 820.4,632.6 820.9,634.8 820.9,637 820.9,656.5 820.9,675.9 820.9,695.4 820.9,700.6 820.3,701.2 815.2,701.2 717.9,701.2 620.5,701.2 523.2,701.2 Z M728,163.8 C727.8,142.8 745.1,125.3 766.2,125.2 787.6,125.1 804.7,142 804.7,163.4 804.8,184.7 787.9,201.7 766.5,201.8 745.6,202 728.2,184.8 728,163.8 Z M590.9,191.2 C590.8,182.3 590.8,173.4 590.8,164.5 590.9,158.1 595.4,153.4 601.1,153.5 606.7,153.6 611,158.2 611.1,164.3 611.2,168.8 611.1,173.3 611.1,177.9 611.1,177.9 611.1,177.9 611.1,177.9 611.1,182.3 611.2,186.7 611.1,191.1 611,197.2 606.7,201.7 601,201.7 595.3,201.7 590.9,197.4 590.9,191.2 Z M570.5,161.5 C570.5,161.5 570.5,155 570.5,155 570.5,153.8 571.5,152.7 572.8,152.7 574.1,152.7 575.1,153.8 575.1,155 575.1,155 575.1,161.5 575.1,161.5 575.1,162.8 574.1,163.8 572.8,163.8 571.5,163.8 570.5,162.8 570.5,161.5 Z M570.5,174 C570.5,174 570.5,167.5 570.5,167.5 570.5,166.2 571.5,165.2 572.8,165.2 574.1,165.2 575.1,166.2 575.1,167.5 575.1,167.5 575.1,174 575.1,174 575.1,175.2 574.1,176.2 572.8,176.2 571.5,176.2 570.5,175.2 570.5,174 Z M570.5,186.4 C570.5,186.4 570.5,179.9 570.5,179.9 570.5,178.6 571.5,177.6 572.8,177.6 574.1,177.6 575.1,178.6 575.1,179.9 575.1,179.9 575.1,186.4 575.1,186.4 575.1,187.7 574.1,188.7 572.8,188.7 571.5,188.7 570.5,187.7 570.5,186.4 Z M553,198.8 C553,198.8 553,192.4 553,192.4 553,191.1 554,190.1 555.3,190.1 556.6,190.1 557.6,191.1 557.6,192.4 557.6,192.4 557.6,198.8 557.6,198.8 557.6,200.1 556.6,201.1 555.3,201.1 554,201.1 553,200.1 553,198.8 Z M553,186.4 C553,186.4 553,179.9 553,179.9 553,178.6 554,177.6 555.3,177.6 556.6,177.6 557.6,178.6 557.6,179.9 557.6,179.9 557.6,186.4 557.6,186.4 557.6,187.7 556.6,188.7 555.3,188.7 554,188.7 553,187.7 553,186.4 Z M553,173.9 C553,173.9 553,167.5 553,167.5 553,166.2 554,165.2 555.3,165.2 556.6,165.2 557.6,166.2 557.6,167.5 557.6,167.5 557.6,173.9 557.6,173.9 557.6,175.2 556.6,176.2 555.3,176.2 554,176.2 553,175.2 553,173.9 Z M561.8,167.7 C561.8,167.7 561.8,161.3 561.8,161.3 561.8,160 562.8,159 564.1,159 565.3,159 566.4,160 566.4,161.3 566.4,161.3 566.4,167.7 566.4,167.7 566.4,169 565.3,170 564.1,170 562.8,170 561.8,169 561.8,167.7 Z M561.8,180.2 C561.8,180.2 561.8,173.7 561.8,173.7 561.8,172.4 562.8,171.4 564.1,171.4 565.3,171.4 566.4,172.4 566.4,173.7 566.4,173.7 566.4,180.2 566.4,180.2 566.4,181.4 565.3,182.5 564.1,182.5 562.8,182.5 561.8,181.4 561.8,180.2 Z M570.5,198.8 C570.5,198.8 570.5,192.4 570.5,192.4 570.5,191.1 571.5,190.1 572.8,190.1 574.1,190.1 575.1,191.1 575.1,192.4 575.1,192.4 575.1,198.8 575.1,198.8 575.1,200.1 574.1,201.1 572.8,201.1 571.5,201.1 570.5,200.1 570.5,198.8 Z M561.8,198.8 C561.8,198.8 561.8,186.3 561.8,186.3 561.8,185 562.8,184 564.1,184 565.3,184 566.4,185 566.4,186.3 566.4,186.3 566.4,198.8 566.4,198.8 566.4,200.1 565.3,201.1 564.1,201.1 562.8,201.1 561.8,200.1 561.8,198.8 Z M626.2,121.5 C626.2,112.9 631.3,107.7 639.8,107.7 661.9,107.6 684.1,107.6 706.2,107.7 715.1,107.7 720,112.6 720,121.6 720.1,143.5 720.1,165.5 720.1,187.5 720,196.6 715,201.5 705.9,201.5 683.8,201.5 661.6,201.5 639.5,201.5 631.6,201.5 626.3,196.1 626.2,188.2 626.2,177 626.2,165.8 626.2,154.6 626.2,143.6 626.2,132.5 626.2,121.5 Z M754.8,94.5 C751.9,94.6 749.9,93.5 749.7,90.7 749.5,84.8 749.4,79 749.7,73.1 749.8,70.2 751.8,68.8 754.9,68.9 759.4,69.1 763.8,69 768.8,69 768.8,64 768.9,59.4 768.7,54.8 768.6,51.5 770.2,49.5 773.3,49.4 778.8,49.1 784.3,49.1 789.8,49.3 793.1,49.5 794.7,51.5 794.5,55 794.3,59.4 794.5,63.8 794.5,69 799.5,69 804.1,69.2 808.7,68.9 812.3,68.7 814.3,70.6 814.5,73.7 814.8,79 814.8,84.3 814.5,89.6 814.3,92.9 812.3,94.8 808.5,94.5 804,94.2 799.6,94.4 794.5,94.4 794.5,99.3 794.3,104 794.6,108.6 794.7,112 793,113.9 790.1,114.1 784.5,114.5 778.8,114.5 773.2,114.1 770.2,113.9 768.5,111.9 768.7,108.5 768.9,104 768.8,99.5 768.8,94.4 763.9,94.4 759.4,94.3 754.8,94.5 Z M822.2,120.9 C822.3,126 822.3,131 822.2,136.1 822.1,139.6 819.2,142.2 815.9,142.1 812.8,142 810.3,139.5 810.1,136.2 809.9,133.6 810,131.1 810,128.6 810,126 809.9,123.5 810.1,121 810.3,117.4 812.9,115 816.3,115 819.4,115.1 822,117.5 822.2,120.9 Z M822.2,772.6 C822.3,777.4 822.3,782.2 822.2,787 822.1,790.8 819.5,793.4 816,793.3 812.5,793.3 810.2,790.7 810,786.8 810,784.5 810,782.2 810,780 810,780 810,780 810,780 810,777.5 809.9,774.9 810.1,772.4 810.3,768.8 812.9,766.3 816.2,766.3 819.4,766.4 822.1,769.1 822.2,772.6 Z M781.1,816 C773.4,816 767.1,809.8 767.2,802.1 767.2,794.5 773.2,788.4 780.8,788.3 788.5,788.2 794.9,794.3 795,802 795.2,809.5 788.8,815.9 781.1,816 Z M819.8,826.9 C819.8,834.5 813.5,840.8 805.8,840.8 798.1,840.8 791.9,834.5 792,826.8 792,819.2 798.4,813 806.1,813.1 813.6,813.2 819.7,819.4 819.8,826.9 Z M794.9,852.1 C795,860 788.7,866.6 781.1,866.6 773.3,866.6 767.3,860.3 767.3,852.1 767.3,844.1 773.5,837.8 781.3,837.9 788.7,837.9 794.8,844.3 794.9,852.1 Z M742.5,826.9 C742.5,819.4 748.6,813.2 756,813.1 763.7,813 770.1,819.2 770.2,826.8 770.2,834.4 764,840.8 756.3,840.8 748.6,840.8 742.5,834.7 742.5,826.9 Z M672.9,800.8 C672.9,800.8 672.9,800.7 672.9,800.7 662,800.7 651.1,800.8 640.2,800.7 631.3,800.7 626.2,795.6 626.2,786.9 626.2,764.9 626.2,742.9 626.2,721 626.2,712 631.3,706.9 640.4,706.9 662.1,706.9 683.8,706.9 705.5,706.9 715.1,706.9 720,711.8 720,721.4 720.1,743.3 720.1,765.1 720,786.9 720,795.7 715,800.7 706.1,800.7 695,800.8 684,800.8 672.9,800.8 Z M527.9,756.5 C555.1,775.6 582.4,794.5 609.3,813.8 621.5,822.6 634.6,826.9 649.6,826.5 667.4,826 685.3,826.3 703.2,826.4 714,826.4 720,832.5 720,843.3 720,858.5 720,873.7 720,888.9 720,888.9 720,894.9 720,894.9 742.4,894.9 764.1,894.9 785.9,894.8 786.9,894.8 788.1,894.1 788.9,893.3 798.6,883.9 808.3,874.3 818.1,864.9 826.6,856.7 831.9,846.7 834.2,835.2 837.9,817.5 837.9,799.4 837.9,781.5 837.8,748.4 836.9,715.4 836.9,682.3 836.9,519 837.2,355.7 837.3,192.4 837.3,158.5 837.2,124.5 836.5,90.5 836.1,71 830.1,53.5 814.6,40 805.9,32.5 798,23.9 789.6,15.9 788.2,14.6 786,13.6 784.1,13.6 764.1,13.5 744.1,13.5 724.2,13.5 722.9,13.5 721.6,13.7 720,13.8 720,13.8 720,18.5 720,18.5 720,33.7 720,48.9 720,64.1 720,76.3 714.3,82.1 701.9,82.1 683.2,82.1 664.5,82.2 645.9,82.1 634.4,82 623.8,84.8 614.3,91.4 585.9,111.4 557.5,131.1 529.1,151 519.3,157.9 509.8,165.5 497,163.6 497,163.6 497,744.8 497,744.8 509.3,743 518.5,749.9 527.9,756.5 Z M428.2,680.8 C428.3,675.1 433.1,670.4 438.8,670.4 444.9,670.4 449.7,675.2 449.7,681.1 449.6,686.9 444.8,691.5 439,691.5 432.9,691.6 428.1,686.8 428.2,680.8 Z M435.4,647.2 C435.4,645.5 436.8,644.1 438.5,644.1 440.3,644.1 441.7,645.5 441.7,647.2 441.7,648.9 440.3,650.3 438.5,650.3 436.8,650.3 435.4,648.9 435.4,647.2 Z M432.3,617.8 C431.8,611.9 431.8,605.9 432.2,600 432.4,596.3 434.9,594 438.8,593.9 442.2,593.8 444.9,596.8 445.1,600.7 445.1,601 445.1,601.3 445.1,601.6 445.1,604 445.1,606.4 445.1,608.7 445.1,611.5 445.3,614.4 445.1,617.2 444.9,620.8 442.8,623 439.2,623.3 435.3,623.6 432.5,621.6 432.3,617.8 Z M431.1,540 C429,540 427.4,538.3 427,535.8 426.5,533.3 427.2,530.7 428.7,529.6 429.4,529 430.3,528.8 431.1,528.8 433.6,528.7 436.1,528.7 438.6,528.7 438.6,528.7 438.6,528.7 438.6,528.7 441,528.7 443.5,528.7 445.9,528.7 448.7,528.7 450.5,530.9 450.5,534.3 450.5,537.6 448.7,540 446,540 441,540 436.1,540.1 431.1,540 Z M431.1,525.8 C429,525.8 427.4,524.1 427,521.6 426.5,519.1 427.2,516.6 428.7,515.4 429.4,514.9 430.3,514.6 431.1,514.6 433.6,514.5 436.1,514.6 438.6,514.6 438.6,514.6 438.6,514.5 438.6,514.5 441,514.5 443.5,514.5 445.9,514.5 448.7,514.6 450.5,516.7 450.5,520.1 450.5,523.5 448.7,525.8 446,525.8 441,525.9 436.1,525.9 431.1,525.8 Z M431.1,511.7 C429,511.6 427.4,510 427,507.5 426.5,505 427.2,502.4 428.7,501.2 429.4,500.7 430.3,500.5 431.1,500.4 433.6,500.3 436.1,500.4 438.6,500.4 438.6,500.4 438.6,500.4 438.6,500.4 441,500.4 443.5,500.3 445.9,500.4 448.7,500.4 450.5,502.6 450.5,505.9 450.5,509.3 448.7,511.6 446,511.7 441,511.7 436.1,511.7 431.1,511.7 Z M431.1,497.5 C429,497.5 427.4,495.8 427,493.3 426.5,490.8 427.2,488.2 428.7,487.1 429.4,486.5 430.3,486.3 431.1,486.3 433.6,486.2 436.1,486.2 438.6,486.2 438.6,486.2 438.6,486.2 438.6,486.2 441,486.2 443.5,486.2 445.9,486.2 448.7,486.2 450.5,488.4 450.5,491.8 450.5,495.1 448.7,497.5 446,497.5 441,497.5 436.1,497.5 431.1,497.5 Z M431.1,483.3 C429,483.3 427.4,481.6 427,479.1 426.5,476.6 427.2,474.1 428.7,472.9 429.4,472.3 430.3,472.1 431.1,472.1 433.6,472 436.1,472 438.6,472 438.6,472 438.6,472 438.6,472 441,472 443.5,472 445.9,472 448.7,472 450.5,474.2 450.5,477.6 450.5,480.9 448.7,483.3 446,483.3 441,483.4 436.1,483.4 431.1,483.3 Z M431.1,469.2 C429,469.1 427.4,467.5 427,464.9 426.5,462.5 427.2,459.9 428.7,458.7 429.4,458.2 430.3,457.9 431.1,457.9 433.6,457.8 436.1,457.9 438.6,457.9 438.6,457.9 438.6,457.8 438.6,457.8 441,457.8 443.5,457.8 445.9,457.8 448.7,457.9 450.5,460 450.5,463.4 450.5,466.8 448.7,469.1 446,469.2 441,469.2 436.1,469.2 431.1,469.2 Z M431.1,455 C429,455 427.4,453.3 427,450.8 426.5,448.3 427.2,445.7 428.7,444.5 429.4,444 430.3,443.8 431.1,443.7 433.6,443.6 436.1,443.7 438.6,443.7 438.6,443.7 438.6,443.7 438.6,443.7 441,443.7 443.5,443.7 445.9,443.7 448.7,443.7 450.5,445.9 450.5,449.2 450.5,452.6 448.7,455 446,455 441,455 436.1,455 431.1,455 Z M431.1,440.8 C429,440.8 427.4,439.1 427,436.6 426.5,434.1 427.2,431.5 428.7,430.4 429.4,429.8 430.3,429.6 431.1,429.6 433.6,429.5 436.1,429.5 438.6,429.5 438.6,429.5 438.6,429.5 438.6,429.5 441,429.5 443.5,429.5 445.9,429.5 448.7,429.5 450.5,431.7 450.5,435.1 450.5,438.4 448.7,440.8 446,440.8 441,440.9 436.1,440.9 431.1,440.8 Z M431.1,426.6 C429,426.6 427.4,424.9 427,422.4 426.5,420 427.2,417.4 428.7,416.2 429.4,415.7 430.3,415.4 431.1,415.4 433.6,415.3 436.1,415.4 438.6,415.4 438.6,415.4 438.6,415.3 438.6,415.3 441,415.3 443.5,415.3 445.9,415.3 448.7,415.4 450.5,417.5 450.5,420.9 450.5,424.3 448.7,426.6 446,426.6 441,426.7 436.1,426.7 431.1,426.6 Z M431.1,412.5 C429,412.5 427.4,410.8 427,408.3 426.5,405.8 427.2,403.2 428.7,402 429.4,401.5 430.3,401.3 431.1,401.2 433.6,401.1 436.1,401.2 438.6,401.2 438.6,401.2 438.6,401.2 438.6,401.2 441,401.2 443.5,401.1 445.9,401.2 448.7,401.2 450.5,403.4 450.5,406.7 450.5,410.1 448.7,412.5 446,412.5 441,412.5 436.1,412.5 431.1,412.5 Z M431.1,398.3 C429,398.3 427.4,396.6 427,394.1 426.5,391.6 427.2,389 428.7,387.9 429.4,387.3 430.3,387.1 431.1,387.1 433.6,387 436.1,387 438.6,387 438.6,387 438.6,387 438.6,387 441,387 443.5,387 445.9,387 448.7,387 450.5,389.2 450.5,392.6 450.5,395.9 448.7,398.3 446,398.3 441,398.3 436.1,398.4 431.1,398.3 Z M428.2,318.9 C428.2,313.1 433,308.3 438.8,308.3 444.5,308.3 449.3,313 449.4,318.8 449.4,324.4 444.6,329.4 438.9,329.4 433.3,329.5 428.3,324.5 428.2,318.9 Z M428.2,261.3 C428.3,255.6 433.2,250.9 438.9,250.9 444.7,251 449.4,255.8 449.3,261.6 449.2,267.5 444.6,272 438.7,271.9 432.9,271.9 428.2,267.1 428.2,261.3 Z M428.2,230 C428.5,224.3 433.5,219.6 439.2,219.8 444.9,220.1 449.5,225 449.3,230.8 449.1,236.6 444.3,241.1 438.4,240.9 432.6,240.6 428,235.7 428.2,230 Z M444.6,906.1 C444.1,902.2 444.9,897.7 443,894.8 436.8,884.9 433.9,874.3 433.8,862.9 433.4,831.5 433.4,800.1 433.3,768.7 433.3,767.5 433.4,766.2 433.6,764.9 434.4,758.7 438.4,755 444.6,754.6 447,754.5 449.5,754.6 452,754.6 452,754.6 452,172.9 452,172.9 450.2,172.8 448.8,172.7 447.4,172.7 437.6,172.5 433.3,168.6 433.4,158.9 433.4,126.7 433.2,94.5 434.1,62.3 434.3,53.8 437.2,44.9 440.8,37.1 443.3,31.6 444.8,26.8 443.7,20.2 433.7,30.1 427,41.3 425.3,54.6 423.8,67.4 423.2,80.4 423.1,93.3 423.1,327.7 423.1,562 423.2,796.4 423.2,816.3 423.1,836.2 423.5,856.1 423.7,870.1 426.2,883.7 434.3,895.6 437,899.5 440.2,903.1 443.1,906.8 443.6,906.5 444.1,906.3 444.6,906.1 Z M310.3,12.3 C308.5,44 309.8,45.1 305.6,54 302.2,61.3 293.3,70 290.4,86.8 286.5,108.8 295.9,121.7 299.5,125.7 309.2,136.6 334.1,146.3 355.7,169.5 365,179.4 369.9,187.6 372.3,191.2 382.1,205.9 390.4,204.4 392,205.4 392.7,205.8 393.8,207.7 394,209.8 394,210 394,210.4 394.1,223.1 394.1,223.2 394.3,236.2 394.3,236.4 394.3,236.4 394.4,262.9 394.4,262.9 394.4,262.9 394.9,390 394.9,390 394.9,390 395,449.3 395,449.3 395,449.3 395.1,480.4 395.1,480.4 395.1,480.4 395.1,511.4 395.1,511.4 395.1,511.4 395,544.9 395,544.9 395,544.9 395,578.4 395,578.4 395,580.5 394.8,620.1 394.7,656.6 394.7,656.6 394.4,709.6 394.4,709.6 394.2,766.1 394.3,776.3 394.2,779.4 394.2,781.2 394.1,783 392.9,784.2 390.5,786.8 383.6,784.6 376.7,792.9 373.9,796.3 365.8,811.9 346.9,829.2 327.6,846.9 312.4,853.8 306,858.7 302.5,861.3 280.9,877.7 293.1,911.7 295.9,919.6 299.9,925 306.5,936.5 308.7,940.4 308.3,937.9 309.4,958.1 310.2,973.9 310.3,975.5 310.3,975.6 310.3,976.3 310.3,975.8 310,977.9 310,977.9 249.9,956.2 249.9,956.2 258.1,932.5 260.9,927.7 266.1,900.2 266.2,899.2 268.6,886.2 269,884.2 272.3,865.9 267.6,862.6 254.3,864.1 244.8,865.2 233.7,872 190.2,873.9 166.6,875 127.2,874.8 119.3,874.2 112,873.6 93.9,871.2 83.4,851.8 77,839.9 66.4,805.4 62.7,798.1 54.6,782.2 41.1,786.9 31,786.1 29.7,776.9 28.4,771.4 28.2,765 28.2,765 27.5,735.3 27.5,735.3 27.5,735 26.8,705.9 26.8,705.6 26.8,705.3 26.5,690.9 26.5,690.7 26.5,690.6 26.2,676 26.2,675.9 26.2,675.8 26,661.2 26,661.1 26,660.9 25.9,646.3 25.9,646.2 25.9,646.2 25.7,567.4 25.7,567.4 25.7,566 25.6,489.3 25.6,488.6 25.6,488.6 25.6,409.7 25.6,409.7 25.6,409.7 25.8,330.9 25.8,330.9 25.8,330.7 25.9,317.9 25.9,317.8 25.9,317.7 26,304.9 26,304.6 26,304.4 26.3,292.7 26.3,291.5 26.4,288.8 26.6,278.5 26.6,278.4 26.6,278.4 27.4,252.1 27.4,252.1 27.4,252.1 28.2,225.9 28.2,225.9 28.5,219 29.6,214.1 31,204.1 41.3,204.2 49.7,205.3 56.6,200.2 61.9,196.2 63.3,191.7 68.1,177.4 68.1,177.2 72.7,163.6 72.7,163.5 79.1,144.8 87.4,123.7 109.2,117.8 117.3,115.6 142.1,115 166.5,115.4 196.5,115.9 216.3,118.6 223,119.4 238.7,121.5 251.6,126.8 260.2,126.6 268,126.4 270,121.8 270.1,114.8 270.2,110.1 268.8,93 261.9,69.5 255.6,48 249.8,37.4 250,34 250,34 310.3,12.3 310.3,12.3 Z M164.6,216.1 C173.5,216.1 177.3,216.7 181.1,214.3 185.2,211.8 185.3,208.1 187.2,208 188.9,207.9 192.8,213.6 197.3,215.2 198.9,215.7 208.7,216.1 221.7,216 241.1,215.9 242.3,215.9 245.4,214.3 251.5,211.2 251.4,204.8 251.5,203.9 251.5,203.7 251.6,192.9 251.6,191.1 251.6,191 251.7,178.5 251.7,178.3 251.7,178.1 251.7,165.6 251.7,165.5 251.7,165.4 251.6,152.9 251.6,152.8 251.1,134.9 236.6,135.8 212.9,133.6 199.4,132.4 198.2,132.1 194.8,133.9 190.2,136.4 192.1,137.8 187.2,141.5 179.9,131.7 187.5,131.7 154.3,132 136.7,132.2 133.7,131.6 129.9,134.6 124.3,138.7 124,147.5 123.9,151.5 123.9,151.5 123,176.1 123,176.1 123,176.6 123,185.3 123,188.8 123,190.7 122.9,201 122.9,201.6 122.9,207.3 124,216.2 137.3,216.1 137.3,216.1 164.6,216.1 164.6,216.1 Z M362.6,216.6 C358.8,223.5 369,229.6 373.6,223.1 375.7,219.9 374.6,215.9 371.4,214.1 368.1,212.2 364.2,213.6 362.6,216.6 Z M174.3,774.2 C174.3,774.2 153,774.1 153,774.1 137.9,774.1 133.4,773.6 129.5,775.6 123,778.7 122.9,785.7 122.9,787.7 122.9,788 122.9,790.3 122.9,800.9 122.9,813.4 122.9,814 122.9,814.2 122.9,814.2 124.1,842.1 124.1,842.1 124.3,847.5 125.3,856.3 136.8,858 142.6,858.8 175.9,858.5 178.1,858 186,856 185,848.6 187.9,848.9 190.3,849.1 190.1,858.7 203.7,857.6 203.9,857.6 215.4,856.5 219,856.1 238.4,854.2 251.8,855 251.7,834.7 251.7,834.7 251.7,812 251.7,812 251.7,810.3 251.6,789.5 251.6,789.3 251.3,777.6 246.6,774.4 234.3,774.4 205.6,774.4 199.6,774.4 198,774.7 190.4,776.1 190,782.2 187.6,782.4 185.6,782.5 185.3,779.7 182.9,777.4 180.5,775 177.5,774.2 174.3,774.2 Z M82.8,810 C91.5,810.2 92,795.5 83.7,794.3 79.8,793.7 76.2,797.3 76.2,802.3 76.2,805.7 78.4,810 82.8,810 Z M334.2,424.6 C342.2,424.8 342.8,413.2 335.1,412.2 326.6,411 325.3,424.5 334.2,424.6 Z M78.6,411.9 C74.7,404 62.7,409.1 65.5,417 68.7,426 82.6,420.2 78.6,411.9 Z M251.5,543.7 C251.5,543.7 251.5,445.4 251.5,445.4 251.5,445.4 222.1,445.4 222.1,445.4 222.1,445.4 222.1,543.7 222.1,543.7 222.1,543.7 251.5,543.7 251.5,543.7 Z M72.4,582.3 C81.4,582 81.5,569.4 72.6,568.7 68.6,568.4 65,571.8 65.1,575.8 65.2,580.6 69.8,582.4 72.4,582.3 Z M368.3,764.4 C360.4,764.4 359.5,775.9 367.3,777 376.4,778.2 377.1,764.5 368.3,764.4 Z M334.5,565.6 C326.6,565.3 325.8,577.1 333.4,578.1 339.2,578.8 340.6,573.4 340.6,572.1 340.8,568.8 338.1,565.8 334.5,565.6 Z M120.7,407.8 C123.6,409.3 122.2,409.4 157,409.3 176.6,409.3 176.4,409.3 179.3,407.8 187.2,403.6 187.5,392 179,387.9 175.1,386 172,386.6 145.2,386.5 124.5,386.5 121.7,385.8 117.6,390.5 113,395.7 114.3,404.3 120.7,407.8 Z M172.9,355.3 C179.7,355.3 185.4,350.7 185.3,343.8 185.3,339.5 182.3,332.9 172.7,332.6 172.4,332.6 163.9,332.6 138.6,332.6 127.4,332.6 120.1,331.5 116.3,338.5 113.6,343.3 114.7,350.8 121.1,354 124.2,355.5 125.1,355.5 149.9,355.4 149.9,355.4 172.9,355.3 172.9,355.3 Z M138.5,382.2 C173.1,382.2 173.7,382.3 175.6,381.9 181.2,380.9 187.3,375.6 184.8,367.6 181.7,357.6 170.1,359.4 163.8,359.4 158.6,359.4 127,359.2 124.5,359.7 115.9,361.3 113.2,369.7 115.8,375.6 117.7,379.7 121.4,381.1 123.4,381.7 125.3,382.2 125.4,382.2 138.5,382.2 Z M150,305.5 C150,305.5 127.8,305.6 127.8,305.6 113.1,305.7 110.8,322.3 121.4,327.1 125.8,329 129.4,328.4 161.3,328.4 168.1,328.4 182.9,330.4 185.1,319.3 186.2,313.7 182.9,305.6 172.2,305.6 172.2,305.6 150,305.5 150,305.5 Z M45.5,274 C45.5,268 45,264.4 40,264.5 34.4,264.7 34.8,270.5 34.8,271.1 34.8,271.1 34.8,300.3 34.8,300.3 34.8,309.4 45.2,309.6 45.5,300.4 45.5,300.2 45.5,297.9 45.5,274 Z M150,301.5 C150,301.5 172.5,301.4 172.5,301.4 183.6,301.4 188,291.4 183.8,284.5 179.5,277.3 172,278.7 152.2,278.7 128.9,278.7 119.9,276.9 115.8,285.3 112.2,293 117.8,301.4 127.5,301.4 127.5,301.4 150,301.5 150,301.5 Z M172,274.6 C188.7,274.5 189.9,254.3 174.6,252 171.6,251.6 128.4,251.8 125.8,252 124,252.2 114.7,253.7 114.9,263.3 115,270 120.2,274.5 127.5,274.6 127.5,274.6 149.7,274.6 149.7,274.6 149.7,274.6 172,274.6 172,274.6 Z M83,196.1 C91.2,196 92.2,181.3 83.6,180.3 74.2,179.1 74,196.2 83,196.1 Z " />
</svg>
